/* XPM */
static char * collectible1_xpm[] = {
"64 64 8 1",
" 	c #5F7160",
".	c #8D977F",
"+	c #778570",
"@	c #693D24",
"#	c #4D3527",
"$	c #875537",
"%	c #362318",
"&	c #E5AA7A",
"                                                                ",
" ....+....................................................+.... ",
" .....+..................................................+..... ",
" ......+                                                +...... ",
" ...... ++++++++++++++++++++++++++++++++++++++++++++++++ ...... ",
" +.....                                                  .....+ ",
" .+...  +++ ++ ++++++++++++++++++++++++++++++++++ ++ +++  ...+. ",
" ..+   ++++ ++ ++++++++++++++++++++++++++++++++++ ++ ++++   +.. ",
" .. + +++  +++ +  ++++++++++++++++++++++++++++  + +++  +++ + .. ",
" .. + ++ +++++ +. ++++++++++++++++++++++++++++ .+ +++++ ++ + .. ",
" .. + ++ ++++   .+  ++++++++        ++++++++  +.   ++++ ++ + .. ",
" .. +   ++++ +++.+.. ++++++ ++++++++ ++++++ ..+.+++ ++++   + .. ",
" .. + +++++ ++  ++... ++++ ++      ++ ++++ ...++  ++ +++++ + .. ",
" .. + ++++ ++ ....+.. ++++ + ...... + ++++ ..+.... ++ ++++ + .. ",
" .. +      + ......+++  ++ + ...... + ++  +++...... +      + .. ",
" .. + ++++ + ......+... ++ + ..  .. + ++ ...+...... + ++++ + .. ",
" .. + ++ ...+......................................+... ++ + .. ",
" .. + ++  +++......................................+++  ++ + .. ",
" .. + ++++ ..+....................................+.. ++++ + .. ",
" .. + ++++ ...++........++++++++++++++++........++... ++++ + .. ",
" .. + +++++ ..+.......++................++.......+.. +++++ + .. ",
" .. + ++++++  +......@...@................+......+  ++++++ + .. ",
" .. + ++++++++ .....@@@.@@@...........@....+..... ++++++++ + .. ",
" .. + ++++++++  ....@#@.@#@          .@@...+....  ++++++++ + .. ",
" .. + ++++++++++...@$$$$$$@@+++++++++  %#...+...++++++++++ + .. ",
" .. + ++++++++++...@$$$$$$$@@++++++++++%#...+...++++++++++ + .. ",
" .. + ++++++    .##$#$$$#$$###+++++++++%#...+...    ++++++ + .. ",
" .. + +++++ ++++..@$$$#$$$$$@       +++%#...+...++++ +++++ + .. ",
" .. + ++++ ++   .##&$@&@$$$###++++++ %%%#...+...   ++ ++++ + .. ",
" .. + ++++ + ......@&&&&&$&@$$%$%%%$%%$# ...+...... + ++++ + .. ",
" .. + ++++ + ......@@&&&&&@$$%$%$%$%$$#+ ...+...... + ++++ + .. ",
" .. + ++++ + .. ...+.&&&&&$$$&$$%$%$$$#+ ...+... .. + ++++ + .. ",
" .. + ++++ + .. ...+..&&&$$&&%%&$%%$%&## ...+... .. + ++++ + .. ",
" .. + ++++ + ......+...#&&%$&&%%&$&$&%&# ...+...... + ++++ + .. ",
" .. + ++++ + ......+... #&&&&&&&&&&&&&&# ...+...... + ++++ + .. ",
" .. + ++++ ++   ...+... +#&&&&@@@@@$&&&# ...+...   ++ ++++ + .. ",
" .. + +++++ ++++...+... ++###&@   ##+@@# ...+...++++ +++++ + .. ",
" .. + ++++++    ...+.... +#++&@++++#+++#....+...    ++++++ + .. ",
" .. + ++++++++++...+.... +#++@+++++#+++#....+...++++++++++ + .. ",
" .. + ++++++++++...+.....  ++++++++++  .....+...++++++++++ + .. ",
" .. + ++++++++  ....+......          ......+....  ++++++++ + .. ",
" .. + ++++++++ .....+......................+..... ++++++++ + .. ",
" .. + ++++++  +......+....................+......+  ++++++ + .. ",
" .. + +++++ ..+.......++................++.......+.. +++++ + .. ",
" .. + ++++ ...++........++++++++++++++++........++... ++++ + .. ",
" .. + ++++ ..+....................................+.. ++++ + .. ",
" .. + ++  +++......................................+++  ++ + .. ",
" .. + ++ ...+......................................+... ++ + .. ",
" .. + ++++ + ......+... ++ + ..  .. + ++ ...+......+... ++ + .. ",
" .. +      + ......+++  ++ + ...... + ++  +++...... +      + .. ",
" .. + ++++ ++ ....+.. ++++ + ...... + ++++ ..+.... ++ ++++ + .. ",
" .. + +++++ ++  ++... ++++ ++      ++ ++++ ...++  ++ +++++ + .. ",
" .. +   ++++ +++.+.. ++++++ ++++++++ ++++++ ..+.+++ ++++   + .. ",
" .. + ++ ++++   .+  ++++++++        ++++++++  +.   ++++ ++ + .. ",
" .. + ++ +++++ +. ++++++++++++++++++++++++++++ .+ +++++ ++ + .. ",
" .. + +++  +++ +  ++++++++++++++++++++++++++++  + +++  +++ + .. ",
" ..+   ++++ ++ ++++++++++++++++++++++++++++++++++ ++ ++++   +.. ",
" .+...  +++ ++ ++++++++++++++++++++++++++++++++++ ++ +++  ...+. ",
" +.....                                                  .....+ ",
" ...... ++++++++++++++++++++++++++++++++++++++++++++++++ ...... ",
" ......+                                                +...... ",
" .....+..................................................+..... ",
" ....+....................................................+.... ",
"                                                                "};
