/* XPM */
static char * exit1_xpm[] = {
"64 64 12 1",
" 	c #5F7160",
".	c #8D977F",
"+	c #778570",
"@	c #141B1B",
"#	c #F2EAF1",
"$	c #EECF9B",
"%	c #FFAD5D",
"&	c #E66A3A",
"*	c #965340",
"=	c #D2B37D",
"-	c #BD7959",
";	c #C8966B",
"                                                                ",
" ....+....................................................+.... ",
" .....+..................................................+..... ",
" ......+ @@@                                        @@@ +...... ",
" ...... @#$$@@++++++++++++++++++++++++++++++++++++@@$$#@ ...... ",
" +.....@###$$$@@@@@@@@@@@@@@@@@@@@@@@@@@@@@@@@@@@@$$$###@.....+ ",
" .+... @###$$$$$$$$$%$$$$$$$$$$$$$$$$$$$$$$$$$$$$$$$$###@ ...+. ",
" ..+  @####%$$$$$$$$%%%%%$%$$$$$$$$$$$$$$$$$$$$$$$$$%####@  +.. ",
" .. + @###%%%%%%$$$$%$$$$$$$$$$$$$$$$$$$$$$$$$$$%%%%%%###@ + .. ",
" .. +@&&#%&&&&%%%%%%%%%%%%%%%%%%%%%%%%%%%%%%%%%%%%&&&&%#&&@+ .. ",
" .. @%%&&**%%%&**********************************&%%%**&&%%@ .. ",
" ..@%%%%&&&*%%%*&&&&&&&&&&&&&&&&&&&&&&&&&&&&&&&&*%%%*&&&%%%%@.. ",
" .@%%%%%&&&&****&&&&&&&&&&&&&&&&&&&&&&&&&&&&&&&&****&&&&%%%%%@. ",
" @%%%%%%%&&&&&&&&&&&&&&&&&&&&&&&&&&&&&&&&&&&&&&&&&&&&&&%%%%%%%@ ",
" @%%%%%%%%&&&&&&&&&&&&&&&&&&&&&&&&&&&&&&&&&&&&&&&&&&&&%%%%%%%%@ ",
"@%%%%%%&%%%&&&&&&&&&&&&&&&&&&&&&&&&&&&&&&&&&&&&&&&&&&%%%&%%%%%%@",
"@%%%%%%%&&&&&&&&&&&&&&&&&&&&&&&&&&&&&&&&&&&&&&&&&&&&&&&&%%%%%%%@",
"@%%%%%%%%&&&&&&&&&&&&&&&&&&&&&&&&&&&&&&&&&&&&&&&&&&&&&&%%%%%%%%@",
"@%%%%%%%%%&&&&&&&&&&&&&&&&&&&&&&&&&&&&&&&&&&&&&&&&&&&&%%%%%%%%%@",
"@%%%%%%&&&&&&&&&&&&&&&&&&&&&&&&&&&&&%%&&&&&&&&&&&&&&&&&&&%%%%%%@",
"@%%&%%%&&&&&&&&&&&&&&&&&&&&&&&&&&&*%%%%*&&&&&&&&&&&&&&&&&%%%&%%@",
"@%%%&%&&&&&&&&&&&&&&&&&&&&&&&&&&&&&****&&&&&&&&&&&&&&&&&&&%&%%%@",
"@%%%%&&&&&&&&&&&&&&&&&&&&&&&&&&&&&&&&&&&&&&&&&&&&&&&&&&&&&&%%%%@",
"@%%%%%&&&&&&&&&&&&&&&&&&&&&&&&&&&&&&&&&&&&&&&&&&&&&&&&&&&&%%%%%@",
"@%%%%%%&&&&&&&&&&&&&&&&&&&&&&&&&&&&&&&&&&&&&&&&&&&&&&&&&&%%%%%%@",
"@%%%&%%%&&&&&&&&&&&&&&&&&&&&&&&&&&&&&&&&&&%%&&&&&&&&&&&&%%%&%%%@",
"@%%%&&&&&&&&&&&&&&&&&&&&&&&&&&&&&&&&&&&&*%%%%*&&&&&&&&&&&&&&%%%@",
"@&%%&&&&&&&&&&&&&&&&&&&&&&&&&&&&&&&&&&&&&****&&&&&&&&&&&&&&&%%&@",
"@%%%%&&&&&&&&&&&&&&&&&&&&&&&&&&&&&&%%&&&&&&&&&&&&&&&&&&&&&&%%%%@",
"@&%%%%&&&&&&&&&&&&&&&&&&&&&&&&&&&*%%%%*&&&&&&&&&&&&&&&&&&&%%%%&@",
"@&%%&&&&&&&&&&&&&&&&&&&&&&&&&&&&&&****&&&&&&&&&&&&&&&&&&&&&&%%&@",
" @&%%&&&&&&&&&&&&&&&&&&&&&&&&&&&&&&&&&&&&&&&&&&&&&&&&&&&&&&%%&@ ",
" @@&&&&&&&&&&&&&&&&&&&&&&&&&&&&&&&&&&&&&&&&&&&&&&&&&&&&&&&&&&@@ ",
" @****&&&&&&&&&&&&&&&&&&&&&&&&&&&&&&&&&&&&&&&&&&&&&&&&&&&&****@ ",
" @***@****************************************************@***@ ",
" @$===----------------------------------------------------===$@ ",
" @$$==----------------------------------------------------==$$@ ",
" @$$$$;;===;;;;;---@@@@@@@@@@---;;;;;=====================$$$$@ ",
" @$$$$======;;;---@@@@@@@@@@@@---;========================$$$$@ ",
" @$$$$========;--@@@@@@@@@@@@@@--;========================$$$$@ ",
" @=$$$========;--@@@@@@@@@@@@@@--;;;;;====================$$$=@ ",
" @=$$$========;--@@@@@@@@@@@@@@--;=;======================$$=$@ ",
" @$==$========;--@@@@@@@@@@@@@@--;=;======================$=$$@ ",
" @$$$--;;;==;;;--@@@@@@@@@@@@@@--;;;;;;;;;;;;;;;;;==;;;;;;=$$$@ ",
" @$$$$========;--@@@@@@@@@@@@@@--;======;=====;===========$$$$@ ",
" @$$$$========;--@@@@@@@@@@@@@@--;======;=====;===========$$$$@ ",
" .@$$$========;--@@@@@@@@@@@@@@--;;;==;;;;;;;;;;;;========$$$@. ",
" .@$$$=;;;===;;--@@@@@@@@@@@@@@--;========================$$$@. ",
" ..@$$========;--@@**********@@--;========================$$@.. ",
" .. **=========--@************@--;========================** .. ",
" .. + **************************************************** + .. ",
" .. + +++++ ++  ++... ++++ ++      ++ ++++ ...++  ++ +++++ + .. ",
" .. +   ++++ +++.+.. ++++++ ++++++++ ++++++ ..+.+++ ++++   + .. ",
" .. + ++ ++++   .+  ++++++++        ++++++++  +.   ++++ ++ + .. ",
" .. + ++ +++++ +. ++++++++++++++++++++++++++++ .+ +++++ ++ + .. ",
" .. + +++  +++ +  ++++++++++++++++++++++++++++  + +++  +++ + .. ",
" ..+   ++++ ++ ++++++++++++++++++++++++++++++++++ ++ ++++   +.. ",
" .+...  +++ ++ ++++++++++++++++++++++++++++++++++ ++ +++  ...+. ",
" +.....                                                  .....+ ",
" ...... ++++++++++++++++++++++++++++++++++++++++++++++++ ...... ",
" ......+                                                +...... ",
" .....+..................................................+..... ",
" ....+....................................................+.... ",
"                                                                "};
