/* XPM */
static char * player_xpm[] = {
"64 64 9 1",
" 	c #5F7160",
".	c #8D977F",
"+	c #778570",
"@	c #362318",
"#	c #E5AA7A",
"$	c #E68EA8",
"%	c #4D3527",
"&	c #6E0B2A",
"*	c #380C1A",
"                                                                ",
" ....+....................................................+.... ",
" .....+..................................................+..... ",
" ......+                                                +...... ",
" ...... ++++++++++++++++++++++++++++++++++++++++++++++++ ...... ",
" +.....                                                  .....+ ",
" .+...  +++ ++ ++++++++++++++++++++++++++++++++++ ++ +++  ...+. ",
" ..+   ++++ ++ ++++++++++++++++++++++++++++++++++ ++ ++++   +.. ",
" .. + +++  +++ +  ++++@@@@@@@@@@@@@@@@@+++++++  + +++  +++ + .. ",
" .. + ++ +++++ +. ++++@@@@@@@@@@@@@@@@@+++++++ .+ +++++ ++ + .. ",
" .. + ++ ++++   .+  ++@@@@@@@@@@@@@@@@@+++++  +.   ++++ ++ + .. ",
" .. +   ++++ +++.+.@@@@@@@@@@@@@@@@@@@@@@@+ ..+.+++ ++++   + .. ",
" .. + +++++ ++  ++.@@@@@@@@@@@@@@@@@@@@@@@ ...++  ++ +++++ + .. ",
" .. + ++++ ++ ..@@@@@@@@@@@@@@@@@@@@@@@@@@@@@+.... ++ ++++ + .. ",
" .. +      + ...@@@@@@@@@@@@@@@@@@@@@@@@@@@@@...... +      + .. ",
" .. + ++++ + ...@@@@@@@@@@@@@@@@@@@@@@@@@@@@@...... + ++++ + .. ",
" .. + ++ ...+...@@@@@@@@@@@@@@@@@@@@@@@@@@@@@......+... ++ + .. ",
" .. + ++  +++...@@@@@@@@@@@@@@@@@@@@@@@@@@@@@......+++  ++ + .. ",
" .. + ++++ ..+..@@@@@@@@@@@@@@@@@@@@@@@@@@@@@.....+.. ++++ + .. ",
" .. + ++++ ...++@@@@@@@@@@@@@@@@@@@@#@@@@@@@@...++... ++++ + .. ",
" .. + +++++ ..+.@@@@@@@@@@@@@@@@@@@@#@@###@@@....+.. +++++ + .. ",
" .. + ++++++  +.@@@@@@@@@@@@@@@@@@@@#@@###@@@....+  ++++++ + .. ",
" .. + ++++++++ .@@@@@@###############@@###@@@.... ++++++++ + .. ",
" .. + ++++++++  @@@@@@$$$%%#####%%$$$$$###@@@...  ++++++++ + .. ",
" .. + ++++++++++@@@@@@$$$%%#####%%$$$$$##@@@@...++++++++++ + .. ",
" .. + ++++++++++@@@@@@@$$%%#####%%$$$##@@@@@@...++++++++++ + .. ",
" .. + ++++++    @@@@@@@$$%%#####%%$$$##@@@@@@...    ++++++ + .. ",
" .. + +++++ ++++@@@@@@@$$%%#####%%$$$##@@@@@@...++++ +++++ + .. ",
" .. + ++++ ++ @@@@@@@@@################@@@@@@@@.   ++ ++++ + .. ",
" .. + ++++ + .@@@@@@@@@################@@@@@@@@.... + ++++ + .. ",
" .. + ++++ + .@@@@@@@@@################@@@@@@@@.... + ++++ + .. ",
" .. + ++++ + .@@@@@@@@@&&&&&&&&&&&&&&&&&&@@@@@@@@@. + ++++ + .. ",
" .. + ++++ + .@@@@@@@@&&&&&&&&&&&&&&&&&&&&@@@@@@@@. + ++++ + .. ",
" .. + ++++ + ...@@@@@@&&&&&&&&&&&&&&&&&&&&&@@@@@@@. + ++++ + .. ",
" .. + ++++ + ...@@@@@@&&&&&&&&&&&&&&&&&&&&&@@@@@@@. + ++++ + .. ",
" .. + ++++ ++   @@@@@@&&&&&&&&&&&&&&&&&&&&&&@@@@@@ ++ ++++ + .. ",
" .. + +++++ ++@@@@@@@&&&&&&&&&&&&&&&&&&&&&&&@@@@@@++ +++++ + .. ",
" .. + ++++++  @@@@@@&&&&&&&&&&&&&&&&&&&&&&&&@@@@@@  ++++++ + .. ",
" .. + ++++++@@@@@@@@&&&**&&&&&&&&&&&&**&&&&&@@@@@@@@++++++ + .. ",
" .. + ++++++@@@@@@@@&&&**&&&&&&&&&&&&**&&&&&@@@@@@@@++++++ + .. ",
" .. + ++++++@@@@@@@@&&&**&&&&&&&&&&&&**&&&&&@@@@@@@@++++++ + .. ",
" .. + ++++++++@@@@@@&&&**&&&&&&&&&&&&**&&&&&@@@.. @@++++++ + .. ",
" .. + ++++++  @@@@@@#####&&&&&&&&&&&&**#####@@@..+@@++++++ + .. ",
" .. + +++++ ..@@@@@@#####&&&&&&&&&&&&%%#####@@@..+@@ +++++ + .. ",
" .. + ++++ .%%++@@@.....+%%%%%%%%%%%%%%+........++... ++++ + .. ",
" .. + ++++ ..+...........%%%%%%%%%%%%%%...........+.. ++++ + .. ",
" .. + ++  +++............%%%%%%%%%%%%%%............+++  ++ + .. ",
" .. + ++ ...+............%%%%%%%%%%%%%%............+... ++ + .. ",
" .. + ++++ + ......+... ++ %%%%% .%%%%%+ ...+......+... ++ + .. ",
" .. +      + ......+++  ++ %%%%%..%%%%%+  +++...... +      + .. ",
" .. + ++++ ++ ....+.. ++++ %%%%%..%%%%%+++ ..+.... ++ ++++ + .. ",
" .. + +++++ ++  ++... ++++ %%%%%  %%%%%+++ ...++  ++ +++++ + .. ",
" .. +   ++++ +++.+.. ++++++%%%%%++%%%%%++++ ..+.+++ ++++   + .. ",
" .. + ++ ++++   .+  ++++++++        ++++++++  +.   ++++ ++ + .. ",
" .. + ++ +++++ +. ++++++++++++++++++++++++++++ .+ +++++ ++ + .. ",
" .. + +++  +++ +  ++++++++++++++++++++++++++++  + +++  +++ + .. ",
" ..+   ++++ ++ ++++++++++++++++++++++++++++++++++ ++ ++++   +.. ",
" .+...  +++ ++ ++++++++++++++++++++++++++++++++++ ++ +++  ...+. ",
" +.....                                                  .....+ ",
" ...... ++++++++++++++++++++++++++++++++++++++++++++++++ ...... ",
" ......+                                                +...... ",
" .....+..................................................+..... ",
" ....+....................................................+.... ",
"                                                                "};
