/* XPM */
static char * wall1_xpm[] = {
"64 64 9 1",
" 	c #5F7160",
".	c #8D977F",
"+	c #778570",
"@	c #141B1B",
"#	c #EECF9B",
"$	c #D2B37D",
"%	c #C8966B",
"&	c #BD7959",
"*	c #965340",
"                                                                ",
" ....+.....................@@@@@@@@@@.....................+.... ",
" .....+...................@##########@...................+..... ",
" ......+                 @############@                 +...... ",
" ...... ++++++++++++++++@##############@++++++++++++++++ ...... ",
" +.....                 @##############@                 .....+ ",
" .+...  +++ ++ +++++++++@##############@+++++++++ ++ +++  ...+. ",
" ..+   ++++ ++ +++++++++@$############%@+++++++++ ++ ++++   +.. ",
" .. + +++  +++ +  ++++++@$$$########%%%@++++++  + +++  +++ + .. ",
" .. + ++ +++++ +. ++++++@$$$$%%%%%%%%%%@++++++ .+ +++++ ++ + .. ",
" .. + ++ ++++   .+  ++++@$$$$%%%%%%%%%%@++++  +.   ++++ ++ + .. ",
" .. +   ++++ +++.+.. ++++@$$$%%%%%%%%%@++++ ..+.+++ ++++   + .. ",
" .. + +++++ ++  ++... ++++@&%%%%%%%%&@++++ ...++  ++ +++++ + .. ",
" .. + ++++ ++ ....+.. ++++@&&&&&&&&&&@++++ ..+.... ++ ++++ + .. ",
" .. +      + ......+++  ++@$&&&&&&&&$@++  +++...... +      + .. ",
" .. + ++++ + ......+... ++@$$$$$$%%%$@++ ...+...... + ++++ + .. ",
" .. + ++ ...+.............@$$$$$$%%%$@.............+... ++ + .. ",
" .. + ++  +++.............@$$$$$$%%%$@.............+++  ++ + .. ",
" .. + ++++ ..+............@$$$$$$%%%$@............+.. ++++ + .. ",
" .. + ++++ ...++........++@%$$$$$%%%%@++........++... ++++ + .. ",
" .. + +++++ ..+.......++..@$%%$$$%&&$@..++.......+.. +++++ + .. ",
" .. + ++++++  +......+....@$$$%%%&%%$@....+......+  ++++++ + .. ",
" .. + ++++++++ .....+.....@$$$$$$%%%$@.....+..... ++++++++ + .. ",
" .. + ++++++++  ....+.....@$$$$$$%%%$@.....+....  ++++++++ + .. ",
" .. + ++++++++++...+..... @$$$$$$%%%$@ .....+...++++++++++ + .. ",
" .. + ++++++++++...+.... +@$$$$$$%%%$@+ ....+...++++++++++ + .. ",
" .. + ++++++    ...+.... +@$$$$$$%%%$@+ ....+...    ++++++ + .. ",
" .. + +++++ ++++...+... ++@$$$$$$%%%$@++ ...+...++++ +++++ + .. ",
" .. + ++++ ++   ...+... ++@%$$$$$%%%%@++ ...+...   ++ ++++ + .. ",
" .. + ++++ + ......+... ++@$%%$$$%&&$@++ ...+...... + ++++ + .. ",
" .. + ++++ + ......+... ++@$$$%%%&%%$@++ ...+...... + ++++ + .. ",
" .. + ++++ + .. ...+... ++@$$$$$$%%%$@++ ...+... .. + ++++ + .. ",
" .. + ++++ + .. ...+... ++@$$$$$$%%%$@++ ...+... .. + ++++ + .. ",
" .. + ++++ + ......+... +@#$$$$$$%%%$#@+ ...+...... + ++++ + .. ",
" .. + ++++ + ......+... @##$$$$$$%%%$##@ ...+...... + ++++ + .. ",
" .. + ++++ ++   ...+... @##$$$$$$%%%$##@ ...+...   ++ ++++ + .. ",
" .. + +++++ ++++...+... @###$$$$$%%%###@ ...+...++++ +++++ + .. ",
" .. + ++++++    ...+....@#############%@....+...    ++++++ + .. ",
" .. + ++++++++++...+....@$###########%%@....+...++++++++++ + .. ",
" .. + ++++++++++...+....@$##$$$$$$$$%%%@....+...++++++++++ + .. ",
" .. + ++++++++  ....+...*$##$$$$$$$$%%%*...+....  ++++++++ + .. ",
" .. + ++++++++ .....+...*$##$$$$$$$$%%%*...+..... ++++++++ + .. ",
" .. + ++++++  +......+...*$#$$$$$$$$%%*...+......+  ++++++ + .. ",
" .. + +++++ ..+.......++................++.......+.. +++++ + .. ",
" .. + ++++ ...++........++++++++++++++++........++... ++++ + .. ",
" .. + ++++ ..+....................................+.. ++++ + .. ",
" .. + ++  +++......................................+++  ++ + .. ",
" .. + ++ ...+......................................+... ++ + .. ",
" .. + ++++ + ......+... ++ + ..  .. + ++ ...+......+... ++ + .. ",
" .. +      + ......+++  ++ + ...... + ++  +++...... +      + .. ",
" .. + ++++ ++ ....+.. ++++ + ...... + ++++ ..+.... ++ ++++ + .. ",
" .. + +++++ ++  ++... ++++ ++      ++ ++++ ...++  ++ +++++ + .. ",
" .. +   ++++ +++.+.. ++++++ ++++++++ ++++++ ..+.+++ ++++   + .. ",
" .. + ++ ++++   .+  ++++++++        ++++++++  +.   ++++ ++ + .. ",
" .. + ++ +++++ +. ++++++++++++++++++++++++++++ .+ +++++ ++ + .. ",
" .. + +++  +++ +  ++++++++++++++++++++++++++++  + +++  +++ + .. ",
" ..+   ++++ ++ ++++++++++++++++++++++++++++++++++ ++ ++++   +.. ",
" .+...  +++ ++ ++++++++++++++++++++++++++++++++++ ++ +++  ...+. ",
" +.....                                                  .....+ ",
" ...... ++++++++++++++++++++++++++++++++++++++++++++++++ ...... ",
" ......+                                                +...... ",
" .....+..................................................+..... ",
" ....+....................................................+.... ",
"                                                                "};
